<?xml version="1.0" ?><!DOCTYPE svg  PUBLIC '-//W3C//DTD SVG 1.1//EN'  'http://www.w3.org/Graphics/SVG/1.1/DTD/svg11.dtd'><svg enable-background="new 0 0 512 512" height="512px" id="Layer_1" version="1.1" viewBox="0 0 512 512" width="512px" xml:space="preserve" xmlns="http://www.w3.org/2000/svg" xmlns:xlink="http://www.w3.org/1999/xlink"><path d="M256-0.5C114.612-0.5,0,115.113,0,256.5c0,141.388,114.612,256,256,256c141.388,0,256-114.612,256-256  C512,115.113,397.388-0.5,256-0.5z M383.388,265C355.656,377.5,169.5,425.237,83.875,308.425  c32.781,31.312,89.926,34.106,126.138-3.375c-76.2-27.75-76.638-124.675-75.4-137.975c40.2,14.938,65.825,26.938,87.25,38.425  c7.625,4.093,16.169,11.438,25.763,20.75c12.237-32.375,28.862-85.469,59.312-89.263c-0.426,3.75-10.001,17.606,1.5,26.838  c32.263-3.213,63.094,23.438,72.074,56.5c0.662,2.412,1.3,5.037,1.895,7.812c11.8,4.412,44.394,6.361,44.394,6.361  S404.206,265.156,383.388,265z" fill="#1D1D1B"/></svg>